<?xml version="1.0" encoding="iso-8859-1"?>
<!-- Generator: Adobe Illustrator 19.0.0, SVG Export Plug-In . SVG Version: 6.00 Build 0)  -->
<svg xmlns="http://www.w3.org/2000/svg" xmlns:xlink="http://www.w3.org/1999/xlink" version="1.1" id="Capa_1" x="0px" y="0px" viewBox="0 0 512 512" style="enable-background:new 0 0 512 512;" xml:space="preserve" width="512px" height="512px">
<g>
	<g>
		<path d="M378.771,220.061c4.78,0,8.656-3.876,8.656-8.656V89.268c0-2.297-0.913-4.5-2.54-6.124L304.213,2.558    c-1.623-1.621-3.823-2.532-6.117-2.532H8.675c-4.78,0-8.656,3.876-8.656,8.656v494.661c0,4.78,3.876,8.656,8.656,8.656h370.096    c4.78,0,8.656-3.876,8.656-8.656V267.706c0-4.78-3.876-8.656-8.656-8.656c-4.78,0-8.656,3.876-8.656,8.656v226.983H17.331V17.34    h277.183l75.6,75.517v118.547C370.115,216.185,373.99,220.061,378.771,220.061z" fill="#d4d8dc"/>
	</g>
</g>
<g>
	<g>
		<path d="M384.849,83.165L304.218,2.534c-2.477-2.476-6.201-3.214-9.434-1.876c-3.234,1.34-5.343,4.496-5.343,7.997v80.631    c0,4.78,3.876,8.656,8.656,8.656h80.631c3.5,0,6.656-2.11,7.996-5.344C388.064,89.364,387.324,85.641,384.849,83.165z     M306.753,80.63V29.554l51.076,51.076H306.753z" fill="#d4d8dc"/>
	</g>
</g>
<g>
	<g>
		<path d="M127.953,56.212H55.097c-4.78,0-8.656,3.876-8.656,8.656s3.876,8.656,8.656,8.656h72.854c4.781,0,8.657-3.876,8.657-8.656    S132.733,56.212,127.953,56.212z" fill="#d4d8dc"/>
	</g>
</g>
<g>
	<g>
		<path d="M342.524,414.876h-79.242c-4.78,0-8.656,3.876-8.656,8.656c0,4.78,3.876,8.656,8.656,8.656h79.242    c4.78,0,8.656-3.876,8.656-8.656C351.18,418.752,347.304,414.876,342.524,414.876z" fill="#d4d8dc"/>
	</g>
</g>
<g>
	<g>
		<path d="M342.524,450.561h-52.366c-4.78,0-8.656,3.876-8.656,8.656c0,4.78,3.876,8.656,8.656,8.656h52.366    c4.78,0,8.656-3.876,8.656-8.656C351.18,454.437,347.304,450.561,342.524,450.561z" fill="#d4d8dc"/>
	</g>
</g>
<g>
	<g>
		<path d="M253.927,146.753H133.33c-4.78,0-8.656,3.876-8.656,8.656c0,4.78,3.876,8.656,8.656,8.656h120.597    c4.78,0,8.656-3.876,8.656-8.656C262.583,150.629,258.708,146.753,253.927,146.753z" fill="#d4d8dc"/>
	</g>
</g>
<g>
	<g>
		<path d="M330.457,191.047H56.802c-4.78,0-8.656,3.876-8.656,8.656s3.876,8.656,8.656,8.656h273.655    c4.78,0,8.656-3.876,8.656-8.656S335.237,191.047,330.457,191.047z" fill="#d4d8dc"/>
	</g>
</g>
<g>
	<g>
		<path d="M330.457,227.455H56.802c-4.78,0-8.656,3.876-8.656,8.656c0,4.78,3.876,8.656,8.656,8.656h273.655    c4.78,0,8.656-3.876,8.656-8.656C339.113,231.331,335.237,227.455,330.457,227.455z" fill="#d4d8dc"/>
	</g>
</g>
<g>
	<g>
		<path d="M265.523,263.871H56.802c-4.78,0-8.656,3.876-8.656,8.656c0,4.78,3.876,8.656,8.656,8.656h208.722    c4.78,0,8.656-3.876,8.656-8.656C274.179,267.747,270.304,263.871,265.523,263.871z" fill="#d4d8dc"/>
	</g>
</g>
<g>
	<g>
		<path d="M277.155,300.289H56.802c-4.78,0-8.656,3.876-8.656,8.656c0,4.78,3.876,8.656,8.656,8.656h220.354    c4.78,0,8.656-3.876,8.656-8.656C285.811,304.165,281.936,300.289,277.155,300.289z" fill="#d4d8dc"/>
	</g>
</g>
<g>
	<g>
		<path d="M253.927,336.706H56.802c-4.78,0-8.656,3.876-8.656,8.656c0,4.78,3.876,8.656,8.656,8.656h197.126    c4.78,0,8.656-3.876,8.656-8.656C262.583,340.582,258.708,336.706,253.927,336.706z" fill="#d4d8dc"/>
	</g>
</g>
<g>
	<g>
		<path d="M166.997,373.123H56.802c-4.78,0-8.656,3.876-8.656,8.656c0,4.78,3.876,8.656,8.656,8.656h110.195    c4.78,0,8.656-3.876,8.656-8.656C175.653,376.998,171.777,373.123,166.997,373.123z" fill="#d4d8dc"/>
	</g>
</g>
<g>
	<g>
		<path d="M162.524,93.121H55.097c-4.78,0-8.656,3.876-8.656,8.656s3.876,8.656,8.656,8.656h107.426c4.78,0,8.656-3.876,8.656-8.656    S167.304,93.121,162.524,93.121z" fill="#d4d8dc"/>
	</g>
</g>
<g>
	<g>
		<path d="M278.127,353.689l-14.034-14.033c-2.731-2.731-6.947-3.322-10.326-1.445l-27.335,15.195    c-1.962,1.091-3.422,2.9-4.076,5.047l-11.441,37.617c-0.93,3.058-0.1,6.38,2.161,8.64c1.648,1.648,3.86,2.535,6.122,2.535    c0.842,0,1.69-0.122,2.518-0.374l37.616-11.443c2.147-0.654,3.956-2.114,5.047-4.076l15.195-27.336    C281.451,360.637,280.86,356.422,278.127,353.689z M250.946,379.883l-18.746,5.703l5.702-18.747l18.569-10.323l4.798,4.797    L250.946,379.883z" fill="#d4d8dc"/>
	</g>
</g>
<g>
	<g>
		<path d="M509.264,130.194c-0.111-0.126-0.228-0.248-0.346-0.367l-20.956-20.957c-0.121-0.12-0.243-0.236-0.37-0.348    c-4.076-3.624-10.221-3.622-14.295,0.003c-0.083,0.074-0.164,0.148-0.245,0.225l-100.285,96.418l-92.906,89.397    c-0.25,0.241-0.485,0.496-0.704,0.765l-32.737,40.114c-2.809,3.442-2.556,8.453,0.586,11.594l23.744,23.742    c1.682,1.681,3.896,2.535,6.122,2.535c1.933,0,3.872-0.645,5.473-1.949l40.112-32.738c0.268-0.22,0.524-0.456,0.764-0.704    l61.789-64.219l124.025-128.969c0.079-0.083,0.158-0.168,0.234-0.253C512.888,140.407,512.885,134.264,509.264,130.194z     M372.534,261.704l-61.427,63.841l-33.648,27.462l-12.679-12.678l27.461-33.65l92.53-89.034l95.584-91.898l11.686,11.685    L372.534,261.704z" fill="#d4d8dc"/>
	</g>
</g>
<g>
	<g>
		<path d="M436.38,208.048l-26.636-26.636c-3.381-3.381-8.861-3.38-12.242,0c-3.38,3.38-3.38,8.861,0,12.241l26.636,26.636    c1.69,1.69,3.905,2.535,6.121,2.535c2.216,0,4.431-0.845,6.121-2.535C439.761,216.909,439.761,211.428,436.38,208.048z" fill="#d4d8dc"/>
	</g>
</g>
<g>
</g>
<g>
</g>
<g>
</g>
<g>
</g>
<g>
</g>
<g>
</g>
<g>
</g>
<g>
</g>
<g>
</g>
<g>
</g>
<g>
</g>
<g>
</g>
<g>
</g>
<g>
</g>
<g>
</g>
</svg>
