<svg xmlns="http://www.w3.org/2000/svg" width="512" height="512"><path d="M378.771 220.061a8.657 8.657 0 0 0 8.656-8.656V89.268c0-2.297-.913-4.5-2.54-6.124L304.213 2.558a8.656 8.656 0 0 0-6.117-2.532H8.675A8.657 8.657 0 0 0 .019 8.682v494.661a8.657 8.657 0 0 0 8.656 8.656h370.096a8.657 8.657 0 0 0 8.656-8.656V267.706a8.657 8.657 0 0 0-17.312 0v226.983H17.331V17.34h277.183l75.6 75.517v118.547a8.658 8.658 0 0 0 8.657 8.657z" fill="#d4d8dc"/><path d="M384.849 83.165L304.218 2.534a8.656 8.656 0 1 0-14.777 6.121v80.631a8.657 8.657 0 0 0 8.656 8.656h80.631a8.657 8.657 0 0 0 6.121-14.777zm-78.096-2.535V29.554l51.076 51.076h-51.076zm-178.8-24.418H55.097a8.657 8.657 0 0 0 0 17.312h72.854a8.657 8.657 0 0 0 .002-17.312zm214.571 358.664h-79.242a8.657 8.657 0 0 0 0 17.312h79.242a8.657 8.657 0 0 0 0-17.312zm0 35.685h-52.366a8.657 8.657 0 0 0 0 17.312h52.366a8.657 8.657 0 0 0 0-17.312zm-88.597-303.808H133.33a8.657 8.657 0 0 0 0 17.312h120.597a8.657 8.657 0 0 0 0-17.312zm76.53 44.294H56.802a8.657 8.657 0 0 0 0 17.312h273.655a8.657 8.657 0 0 0 0-17.312zm0 36.408H56.802a8.657 8.657 0 0 0 0 17.312h273.655a8.657 8.657 0 0 0 0-17.312zm-64.934 36.416H56.802a8.657 8.657 0 0 0 0 17.312h208.722a8.657 8.657 0 0 0-.001-17.312zm11.632 36.418H56.802a8.657 8.657 0 0 0 0 17.312h220.354a8.657 8.657 0 0 0-.001-17.312zm-23.228 36.417H56.802a8.657 8.657 0 0 0 0 17.312h197.126a8.657 8.657 0 0 0-.001-17.312zm-86.93 36.417H56.802a8.657 8.657 0 0 0 0 17.312h110.195a8.657 8.657 0 0 0 0-17.312zm-4.473-280.002H55.097a8.657 8.657 0 0 0 0 17.312h107.426a8.657 8.657 0 0 0 .001-17.312z" fill="#d4d8dc"/><path d="M278.127 353.689l-14.034-14.033a8.66 8.66 0 0 0-10.326-1.445l-27.335 15.195a8.66 8.66 0 0 0-4.076 5.047l-11.441 37.617a8.655 8.655 0 0 0 10.801 10.801l37.616-11.443a8.66 8.66 0 0 0 5.047-4.076l15.195-27.336a8.66 8.66 0 0 0-1.447-10.327zm-27.181 26.194l-18.746 5.703 5.702-18.747 18.569-10.323 4.798 4.797-10.323 18.57z" fill="#d4d8dc"/><path d="M509.264 130.194a8.572 8.572 0 0 0-.346-.367l-20.956-20.957a10.756 10.756 0 0 0-14.91-.12l-100.285 96.418-92.906 89.397c-.25.241-.485.496-.704.765l-32.737 40.114a8.656 8.656 0 0 0 .586 11.594l23.744 23.742a8.638 8.638 0 0 0 6.122 2.535 8.646 8.646 0 0 0 5.473-1.949l40.112-32.738a9.1 9.1 0 0 0 .764-.704l61.789-64.219 124.025-128.969a10.758 10.758 0 0 0 .229-14.542zm-136.73 131.51l-61.427 63.841-33.648 27.462-12.679-12.678 27.461-33.65 92.53-89.034 95.584-91.898 11.686 11.685-119.507 124.272z" fill="#d4d8dc"/><path d="M436.38 208.048l-26.636-26.636a8.656 8.656 0 0 0-12.242 12.241l26.636 26.636a8.628 8.628 0 0 0 6.121 2.535 8.628 8.628 0 0 0 6.121-2.535 8.654 8.654 0 0 0 0-12.241z" fill="#d4d8dc"/></svg>