<svg xmlns="http://www.w3.org/2000/svg" viewBox="0 0 511.999 511.999" width="512" height="512"><path d="M184.678 365.642H53.53a7.604 7.604 0 0 0-7.604 7.604v68.673c0 38.642 31.438 70.08 70.08 70.08h6.197c38.642 0 70.08-31.438 70.08-70.08v-68.673a7.606 7.606 0 0 0-7.605-7.604zm-62.476 131.149h-6.197c-18.261 0-34.458-8.976-44.437-22.738l11.234 5.324a7.593 7.593 0 0 0 6.513.001l39.805-18.857 21.342 10.11a7.605 7.605 0 0 0 6.511-13.745l-24.597-11.652a7.612 7.612 0 0 0-6.511 0L86.06 464.09l-23.84-11.297a54.881 54.881 0 0 1-1.086-10.873v-31.964l21.669 10.267a7.61 7.61 0 0 0 6.512 0l39.805-18.857 39.806 18.857a7.608 7.608 0 0 0 6.509 0l1.639-.777v22.474c0 30.256-24.616 54.871-54.872 54.871zm54.873-94.172l-4.894 2.317-39.806-18.857a7.612 7.612 0 0 0-6.511 0l-39.805 18.857-24.925-11.81V380.85h115.941v21.769zm146.456-285.624c-44.138-44.137-115.954-44.136-160.09 0-21.38 21.38-33.156 49.808-33.156 80.045s11.776 58.663 33.156 80.045c22.069 22.069 51.056 33.103 80.045 33.103 28.988 0 57.976-11.034 80.046-33.103 44.134-44.138 44.134-115.954-.001-160.09zm-83.652-17.816a270.16 270.16 0 0 1 3.113 9.102l-39.798 18.853-18.266-8.655c16.294-12.161 35.533-18.592 54.951-19.3zm-67.335 30.261l27.395 12.98a7.606 7.606 0 0 0 6.512 0l40.891-19.371c4.941 18.588 8.342 38.594 10.157 59.675-20.003 9.422-41.468 19.175-52.443 23.831l-58.959-20.415c2.338-21.278 11.508-41.043 26.447-56.7zm80.984 165.02c-8.71.89-17.512.604-26.164-.827l28.004-13.264a579.839 579.839 0 0 1-1.84 14.091zm3.644-31.773l-51.877 24.571a97.428 97.428 0 0 1-31.1-20.928c-17.317-17.317-27.353-39.975-28.574-64.258l57.201 19.806a7.588 7.588 0 0 0 5.381-.153c9.213-3.789 30.025-13.183 50.371-22.703.953 20.405.483 41.696-1.402 63.665zm55.604 3.643c-12.491 12.492-27.551 20.872-43.49 25.196 4.783-35.607 6.137-69.83 4.001-101.865-1.887-28.452-6.524-55.203-13.78-79.506a293.511 293.511 0 0 0-3.251-10.208c20.683 2.696 40.666 11.95 56.52 27.804 38.206 38.204 38.206 100.372 0 138.579z" fill="#d4d8dc"/><path d="M497.174 399.844l-45.106-45.106a7.604 7.604 0 0 0-10.754 0 7.602 7.602 0 0 0 0 10.753l45.106 45.106c8.099 8.099 8.099 21.278 0 29.377-8.098 8.099-21.277 8.099-29.376 0l-83.514-83.515c-8.099-8.099-8.099-21.278 0-29.377 8.098-8.099 21.277-8.099 29.376 0l19.904 19.904a7.606 7.606 0 0 0 10.755-10.755l-19.904-19.904c-5.339-5.338-12.061-8.782-19.357-10.018l5.455-5.455c9.913-9.914 9.913-26.045-.001-35.96-4.802-4.803-11.187-7.447-17.98-7.447-.972 0-1.935.061-2.887.167 8.422-18.808 12.858-39.351 12.858-60.576 0-39.603-15.421-76.835-43.424-104.838-28.004-28.003-65.237-43.425-104.839-43.425-17.04 0-33.637 2.862-49.252 8.346a141.986 141.986 0 0 0-2.178-3.298c-6.689-9.826-14.263-18.39-22.515-25.456C144.551 6.978 115.527-3.063 89.919.819 67.006 4.292 47.052 18.585 32.213 42.147c-8.235 13.045-15.057 29.145-20.277 47.854-2.308 8.286-4.122 17.007-5.391 25.929-2.682 18.974-2.959 39.612-.826 61.334 1.701 17.468 4.889 35.682 9.744 55.673 4.617 19.12 10.172 37.331 14.998 52.623 1.019 3.229 2.021 6.38 2.995 9.443 6.694 21.045 12.474 39.219 12.474 48.704a7.604 7.604 0 0 0 7.537 7.604l23.018.202h.068a7.604 7.604 0 0 0 .065-15.207l-16.096-.141c-1.642-11.25-6.393-26.332-12.153-44.448l34.439 16.321a7.593 7.593 0 0 0 6.514 0l38.49-18.241a151.167 151.167 0 0 0 10.837 12.083c13.365 13.365 28.836 23.856 45.66 31.182-.469 1.374-.946 2.76-1.441 4.174L105 336.509c-4.187-.029-7.636 3.334-7.674 7.533a7.604 7.604 0 0 0 7.533 7.675l83.293.775h.071a7.606 7.606 0 0 0 7.158-5.038 648.393 648.393 0 0 0 3.174-9.058c14.343 4.541 29.454 6.907 44.93 6.907 21.226 0 41.768-4.436 60.577-12.858a25.822 25.822 0 0 0-.167 2.887c0 6.792 2.644 13.178 7.448 17.981 4.957 4.957 11.468 7.435 17.979 7.435 6.512 0 13.024-2.478 17.981-7.435l5.455-5.455c1.236 7.296 4.68 14.019 10.018 19.357l83.514 83.515c6.796 6.796 15.832 10.539 25.443 10.539s18.647-3.742 25.443-10.539c14.027-14.031 14.027-36.857-.002-50.886zM92.197 15.856c21.238-3.218 45.824 5.552 67.452 24.064 5.151 4.411 10.013 9.529 14.535 15.255l-2.005.949-39.806-18.857a7.612 7.612 0 0 0-6.511 0L86.059 56.125 52.315 40.14C63.567 26.326 76.94 18.169 92.197 15.856zM21.106 122.079l21.896-10.368 39.806 18.855a7.598 7.598 0 0 0 6.51 0L110.8 120.39a7.604 7.604 0 0 0 3.617-10.128 7.603 7.603 0 0 0-10.127-3.617l-18.226 8.633-39.807-18.854a7.604 7.604 0 0 0-6.509 0L24.2 103.786c.723-3.29 1.506-6.539 2.387-9.701 4.481-16.063 10.172-29.929 16.934-41.282l39.282 18.608a7.612 7.612 0 0 0 6.511 0l39.805-18.857 37.39 17.712A149.27 149.27 0 0 0 138.648 92.2c-21.232 21.232-35.224 47.772-40.753 76.626l-11.832 5.611-39.803-18.863a7.606 7.606 0 0 0-6.513 0l-19.726 9.348c-.903-15.03-.54-29.384 1.085-42.843zm7.025 98.159c-3.068-13.787-5.283-26.71-6.706-39.152l21.577-10.224 39.804 18.864a7.593 7.593 0 0 0 6.515 0l6.257-2.967a149.576 149.576 0 0 0 2.821 40.991l-12.334 5.841-39.806-18.855a7.605 7.605 0 0 0-6.511 0l-11.617 5.502zm57.933 72.511l-39.805-18.864a7.589 7.589 0 0 0-3.735-.707c-3.677-11.858-7.397-24.453-10.788-37.82l11.268-5.339 39.805 18.855a7.598 7.598 0 0 0 6.51 0l13.042-6.176a146.455 146.455 0 0 0 16.391 34.559l-32.688 15.492zm157.421 37.345c-35.54 0-68.954-13.84-94.084-38.97S110.43 232.58 110.43 197.04s13.84-68.954 38.971-94.084 58.544-38.971 94.084-38.971 68.953 13.84 94.083 38.971c25.132 25.131 38.971 58.544 38.971 94.084s-13.839 68.954-38.971 94.084c-25.13 25.129-58.542 38.97-94.083 38.97zm119.29-13.765l-.007.008-26.22 26.22c-3.987 3.984-10.466 3.985-14.453 0a10.153 10.153 0 0 1-2.992-7.226c0-2.729 1.063-5.296 2.993-7.226l26.223-26.223.005-.005.005-.005 26.223-26.223a10.15 10.15 0 0 1 7.225-2.993c2.729 0 5.297 1.063 7.226 2.993 3.985 3.985 3.985 10.468 0 14.452l-26.22 26.221-.008.007z" fill="#d4d8dc"/></svg>