<?xml version="1.0" encoding="iso-8859-1"?>
<!-- Generator: Adobe Illustrator 19.0.0, SVG Export Plug-In . SVG Version: 6.00 Build 0)  -->
<svg xmlns="http://www.w3.org/2000/svg" xmlns:xlink="http://www.w3.org/1999/xlink" version="1.1" id="Capa_1" x="0px" y="0px" viewBox="0 0 511.999 511.999" style="enable-background:new 0 0 511.999 511.999;" xml:space="preserve" width="512px" height="512px">
<g>
	<g>
		<path d="M184.678,365.642H53.53c-4.2,0-7.604,3.405-7.604,7.604v68.673c0,38.642,31.438,70.08,70.08,70.08h6.197    c38.642,0,70.08-31.438,70.08-70.08v-68.673C192.282,369.046,188.877,365.642,184.678,365.642z M122.202,496.791h-6.197    c-18.261,0-34.458-8.976-44.437-22.738l11.234,5.324c1.031,0.489,2.143,0.733,3.257,0.733c1.112,0,2.226-0.244,3.256-0.732    l39.805-18.857l21.342,10.11c3.796,1.799,8.33,0.179,10.128-3.617c1.798-3.795,0.178-8.33-3.617-10.128l-24.597-11.652    c-2.06-0.975-4.451-0.975-6.511,0l-39.805,18.856L62.22,452.793c-0.71-3.516-1.086-7.151-1.086-10.873v-31.964l21.669,10.267    c1.031,0.489,2.143,0.732,3.256,0.732c1.112,0,2.225-0.244,3.256-0.732l39.805-18.857l39.806,18.857    c2.059,0.975,4.449,0.975,6.509,0l1.639-0.777v22.474h0C177.074,472.176,152.458,496.791,122.202,496.791z M177.075,402.619    L177.075,402.619l-4.894,2.317l-39.806-18.857c-2.06-0.975-4.451-0.975-6.511,0l-39.805,18.857l-24.925-11.81V380.85h115.941    V402.619z" fill="#d4d8dc"/>
	</g>
</g>
<g>
	<g>
		<path d="M323.531,116.995c-44.138-44.137-115.954-44.136-160.09,0c-21.38,21.38-33.156,49.808-33.156,80.045    s11.776,58.663,33.156,80.045c22.069,22.069,51.056,33.103,80.045,33.103c28.988,0,57.976-11.034,80.046-33.103    C367.666,232.947,367.666,161.131,323.531,116.995z M239.879,99.179c1.079,2.971,2.115,6.015,3.113,9.102l-39.798,18.853    l-18.266-8.655C201.222,106.318,220.461,99.887,239.879,99.179z M172.544,129.44l27.395,12.98    c1.031,0.488,2.143,0.732,3.256,0.732s2.226-0.244,3.256-0.732l40.891-19.371c4.941,18.588,8.342,38.594,10.157,59.675    c-20.003,9.422-41.468,19.175-52.443,23.831l-58.959-20.415C148.435,164.862,157.605,145.097,172.544,129.44z M253.528,294.46    c-8.71,0.89-17.512,0.604-26.164-0.827l28.004-13.264C254.817,285.039,254.203,289.737,253.528,294.46z M257.172,262.687    l-51.877,24.571c-11.307-4.769-21.902-11.73-31.1-20.928c-17.317-17.317-27.353-39.975-28.574-64.258l57.201,19.806    c0.807,0.28,1.648,0.419,2.488,0.419c0.984,0,1.967-0.191,2.893-0.572c9.213-3.789,30.025-13.183,50.371-22.703    C259.527,219.427,259.057,240.718,257.172,262.687z M312.776,266.33c-12.491,12.492-27.551,20.872-43.49,25.196    c4.783-35.607,6.137-69.83,4.001-101.865c-1.887-28.452-6.524-55.203-13.78-79.506c-1.029-3.453-2.118-6.858-3.251-10.208    c20.683,2.696,40.666,11.95,56.52,27.804C350.982,165.955,350.982,228.123,312.776,266.33z" fill="#d4d8dc"/>
	</g>
</g>
<g>
	<g>
		<path d="M497.174,399.844l-45.106-45.106c-2.971-2.969-7.785-2.971-10.754,0c-2.97,2.97-2.97,7.784,0,10.753l45.106,45.106    c8.099,8.099,8.099,21.278,0,29.377c-8.098,8.099-21.277,8.099-29.376,0l-83.514-83.515c-8.099-8.099-8.099-21.278,0-29.377    c8.098-8.099,21.277-8.099,29.376,0l19.904,19.904c2.97,2.969,7.784,2.97,10.755,0c2.97-2.97,2.97-7.785,0-10.755l-19.904-19.904    c-5.339-5.338-12.061-8.782-19.357-10.018l5.455-5.455c9.913-9.914,9.913-26.045-0.001-35.96    c-4.802-4.803-11.187-7.447-17.98-7.447c-0.972,0-1.935,0.061-2.887,0.167c8.422-18.808,12.858-39.351,12.858-60.576    c0-39.603-15.421-76.835-43.424-104.838c-28.004-28.003-65.237-43.425-104.839-43.425c-17.04,0-33.637,2.862-49.252,8.346    c-0.724-1.126-1.451-2.234-2.178-3.298c-6.689-9.826-14.263-18.39-22.515-25.456C144.551,6.978,115.527-3.063,89.919,0.819    C67.006,4.292,47.052,18.585,32.213,42.147c-8.235,13.045-15.057,29.145-20.277,47.854c-2.308,8.286-4.122,17.007-5.391,25.929    c-2.682,18.974-2.959,39.612-0.826,61.334c1.701,17.468,4.889,35.682,9.744,55.673c4.617,19.12,10.172,37.331,14.998,52.623    c1.019,3.229,2.021,6.38,2.995,9.443c6.694,21.045,12.474,39.219,12.474,48.704c0,4.173,3.364,7.568,7.537,7.604l23.018,0.202    c0.022,0,0.046,0,0.068,0c4.168,0,7.566-3.361,7.602-7.537c0.038-4.2-3.338-7.634-7.537-7.67l-16.096-0.141    c-1.642-11.25-6.393-26.332-12.153-44.448l34.439,16.321c1.031,0.489,2.143,0.733,3.257,0.733c1.113,0,2.226-0.244,3.257-0.733    l38.49-18.241c3.372,4.188,6.981,8.226,10.837,12.083c13.365,13.365,28.836,23.856,45.66,31.182    c-0.469,1.374-0.946,2.76-1.441,4.174L105,336.509c-4.187-0.029-7.636,3.334-7.674,7.533c-0.039,4.2,3.334,7.636,7.533,7.675    l83.293,0.775c0.023,0,0.048,0,0.071,0c3.207,0,6.073-2.014,7.158-5.038c1.123-3.132,2.173-6.131,3.174-9.058    c14.343,4.541,29.454,6.907,44.93,6.907c21.226,0,41.768-4.436,60.577-12.858c-0.107,0.952-0.167,1.914-0.167,2.887    c0,6.792,2.644,13.178,7.448,17.981c4.957,4.957,11.468,7.435,17.979,7.435c6.512,0,13.024-2.478,17.981-7.435l5.455-5.455    c1.236,7.296,4.68,14.019,10.018,19.357l83.514,83.515c6.796,6.796,15.832,10.539,25.443,10.539    c9.611,0,18.647-3.742,25.443-10.539C511.203,436.699,511.203,413.873,497.174,399.844z M92.197,15.856    c21.238-3.218,45.824,5.552,67.452,24.064c5.151,4.411,10.013,9.529,14.535,15.255l-2.005,0.949l-39.806-18.857    c-2.06-0.975-4.451-0.975-6.511,0L86.059,56.125L52.315,40.14C63.567,26.326,76.94,18.169,92.197,15.856z M21.106,122.079    l21.896-10.368l39.806,18.855c1.03,0.488,2.142,0.732,3.255,0.732s2.225-0.244,3.255-0.732l21.482-10.176    c3.796-1.798,5.415-6.332,3.617-10.128c-1.797-3.795-6.331-5.415-10.127-3.617l-18.226,8.633L46.257,96.424    c-2.06-0.975-4.449-0.976-6.509,0l-15.548,7.362c0.723-3.29,1.506-6.539,2.387-9.701c4.481-16.063,10.172-29.929,16.934-41.282    l39.282,18.608c2.06,0.975,4.451,0.975,6.511,0l39.805-18.857l37.39,17.712c-10.008,6.102-19.362,13.434-27.861,21.934    c-21.232,21.232-35.224,47.772-40.753,76.626l-11.832,5.611l-39.803-18.863c-2.061-0.977-4.452-0.976-6.513,0l-19.726,9.348    C19.118,149.892,19.481,135.538,21.106,122.079z M28.131,220.238c-3.068-13.787-5.283-26.71-6.706-39.152l21.577-10.224    l39.804,18.864c1.031,0.489,2.143,0.733,3.257,0.733c1.113,0,2.228-0.244,3.258-0.733l6.257-2.967    c-0.232,3.407-0.356,6.835-0.356,10.282c0,10.444,1.083,20.72,3.177,30.709l-12.334,5.841l-39.806-18.855    c-2.06-0.976-4.451-0.976-6.511,0L28.131,220.238z M86.064,292.749l-39.805-18.864c-1.178-0.559-2.465-0.787-3.735-0.707    c-3.677-11.858-7.397-24.453-10.788-37.82l11.268-5.339l39.805,18.855c1.03,0.488,2.142,0.732,3.255,0.732    s2.225-0.243,3.255-0.732l13.042-6.176c3.922,12.166,9.42,23.768,16.391,34.559L86.064,292.749z M243.485,330.094    c-35.54,0-68.954-13.84-94.084-38.97S110.43,232.58,110.43,197.04s13.84-68.954,38.971-94.084s58.544-38.971,94.084-38.971    s68.953,13.84,94.083,38.971c25.132,25.131,38.971,58.544,38.971,94.084s-13.839,68.954-38.971,94.084    C312.438,316.253,279.026,330.094,243.485,330.094z M362.775,316.329c-0.002,0.003-0.005,0.005-0.007,0.008l-26.22,26.22    c-3.987,3.984-10.466,3.985-14.453,0c-1.93-1.93-2.992-4.497-2.992-7.226c0-2.729,1.063-5.296,2.993-7.226l26.223-26.223    c0.002-0.002,0.003-0.003,0.005-0.005c0.002-0.002,0.003-0.003,0.005-0.005l26.223-26.223c1.929-1.93,4.496-2.993,7.225-2.993    c2.729,0,5.297,1.063,7.226,2.993c3.985,3.985,3.985,10.468,0,14.452l-26.22,26.221    C362.78,316.324,362.777,316.327,362.775,316.329z" fill="#d4d8dc"/>
	</g>
</g>
<g>
</g>
<g>
</g>
<g>
</g>
<g>
</g>
<g>
</g>
<g>
</g>
<g>
</g>
<g>
</g>
<g>
</g>
<g>
</g>
<g>
</g>
<g>
</g>
<g>
</g>
<g>
</g>
<g>
</g>
</svg>
