<?xml version="1.0" encoding="iso-8859-1"?>
<!-- Generator: Adobe Illustrator 19.0.0, SVG Export Plug-In . SVG Version: 6.00 Build 0)  -->
<svg xmlns="http://www.w3.org/2000/svg" xmlns:xlink="http://www.w3.org/1999/xlink" version="1.1" id="Layer_1" x="0px" y="0px" viewBox="0 0 512 512" style="enable-background:new 0 0 512 512;" xml:space="preserve" width="512px" height="512px">
<g>
	<g>
		<rect x="106.772" y="442.663" width="14.769" height="16.937" fill="#d4d8dc"/>
	</g>
</g>
<g>
	<g>
		<path d="M433.524,324.017c23.382-12.707,39.288-37.492,39.288-65.923c0-24.941-12.253-47.063-31.043-60.7    c-13.606-26.517-37.29-47.04-65.959-56.498c23.382-12.707,39.289-37.492,39.289-65.922C415.099,33.633,381.466,0,340.125,0    c-41.34,0-74.974,33.633-74.974,74.975c0,8.583,1.469,16.824,4.136,24.51c-4.329-0.695-8.765-1.069-13.287-1.069    s-8.958,0.373-13.287,1.069c2.667-7.686,4.136-15.928,4.136-24.51C246.849,33.633,213.216,0,171.874,0    S96.901,33.633,96.901,74.975c0,28.431,15.907,53.214,39.289,65.922c-28.669,9.458-52.353,29.982-65.958,56.498    c-18.791,13.637-31.044,35.758-31.044,60.7c0,18.845,7.005,36.074,18.527,49.26v1.114h0.965    c5.659,6.227,12.349,11.501,19.798,15.549C32.951,339.036,0,381.97,0,432.46V512h228.322v-45.015h55.356V512H512v-79.54    C512,381.97,479.049,339.036,433.524,324.017z M397.839,318.299c-13.98,0-26.85-4.803-37.08-12.827    c-4.663-6.685-9.948-12.902-15.772-18.572c-2.959-5.407-5.099-11.318-6.285-17.565c17.454-5.988,29.846-14.236,38.343-21.805    c10.945,7.8,36.735,22.194,79.481,23.942C450.424,298.249,426.437,318.299,397.839,318.299z M424.208,336.625l-26.368,30.229    l-18.402-21.096c-0.925-3.5-1.995-6.941-3.203-10.317c6.959-1.549,14.187-2.372,21.605-2.372    C406.965,333.068,415.806,334.311,424.208,336.625z M458.009,256.75c-37.357-1.38-60.441-13.313-70.651-20.101    c3.832-4.869,5.55-8.291,5.746-8.695l-13.288-6.446c-0.106,0.221-10.18,20.278-42.023,32.459    c2.13-31.277,28.239-56.078,60.047-56.078C430.585,197.889,457.29,224.173,458.009,256.75z M333.232,150.19    c2.278-0.157,4.576-0.243,6.892-0.243c9.126,0,17.967,1.243,26.369,3.557l-26.369,30.229l-0.638-0.732    c0.005-0.358,0.028-0.712,0.028-1.071C339.514,170.697,337.271,159.982,333.232,150.19z M381.37,158.919    c13.474,6.171,25.337,15.268,34.777,26.472c-5.862-1.477-11.994-2.271-18.308-2.271c-19.353,0-37.015,7.372-50.33,19.453v-4.838    L381.37,158.919z M340.125,135.178c-5.771,0-11.347-0.833-16.634-2.355c-9.021-12.364-21.344-22.166-35.671-28.092    c-3.235-5.664-5.577-11.897-6.832-18.515c17.454-5.988,29.846-14.236,38.342-21.805c10.945,7.8,36.735,22.195,79.482,23.942    C392.711,115.128,368.724,135.178,340.125,135.178z M323.868,270.259c-9.298-5.86-19.398-10.559-30.099-13.88    c17.356-8.841,31.233-23.558,38.972-41.529v6.125c-6.27,10.953-9.875,23.62-9.875,37.12    C322.865,262.238,323.218,266.297,323.868,270.259z M256,250.675c-33.798,0-61.957-24.524-67.669-56.707    c20.32-6.85,34.572-16.429,44.19-25.12c11.941,8.66,41.305,25.503,90.741,27.277C316.703,227.242,289.04,250.675,256,250.675z     M287.374,269.885L256,305.851l-31.374-35.966c9.964-2.888,20.491-4.441,31.374-4.441    C266.883,265.444,277.409,266.997,287.374,269.885z M179.259,220.975v-6.125c7.739,17.972,21.616,32.688,38.972,41.529    c-10.702,3.321-20.801,8.021-30.099,13.88c0.65-3.962,1.002-8.023,1.002-12.165C189.135,244.594,185.53,231.928,179.259,220.975z     M340.125,14.769c32.746,0,59.451,26.284,60.171,58.86c-37.358-1.38-60.442-13.314-70.652-20.102    c3.832-4.869,5.551-8.291,5.747-8.696l-13.268-6.489c-0.454,0.905-10.612,20.5-42.045,32.506    C282.206,39.572,308.316,14.769,340.125,14.769z M256,113.185c37.725,0,68.438,30.548,68.731,68.204    c-43.914-1.417-70.626-15.727-81.887-23.398c4.691-5.817,6.754-9.948,6.983-10.417l-13.288-6.446    c-0.124,0.255-11.919,23.733-49.201,37.533C189.051,142.267,219.19,113.185,256,113.185z M171.874,14.769    c32.746,0,59.45,26.284,60.17,58.86c-37.358-1.38-60.442-13.314-70.652-20.102c3.832-4.869,5.55-8.291,5.746-8.696l-13.268-6.489    c-0.454,0.905-10.612,20.5-42.045,32.506C113.955,39.572,140.065,14.769,171.874,14.769z M112.738,86.216    c17.454-5.988,29.846-14.236,38.342-21.805c10.945,7.8,36.735,22.195,79.482,23.942c-1.327,5.825-3.499,11.327-6.383,16.378    c-14.326,5.927-26.649,15.728-35.67,28.092c-5.287,1.523-10.863,2.355-16.634,2.355    C142.52,135.178,118.021,114.056,112.738,86.216z M172.513,183.002l-0.638,0.732l-26.369-30.229    c8.402-2.315,17.242-3.557,26.369-3.557c2.318,0,4.615,0.087,6.893,0.243c-4.039,9.792-6.282,20.507-6.282,31.739    C172.486,182.289,172.509,182.643,172.513,183.002z M130.629,158.919l33.861,38.816v4.838    c-13.315-12.081-30.977-19.453-50.33-19.453c-6.314,0-12.445,0.794-18.308,2.271C105.293,174.186,117.155,165.089,130.629,158.919    z M114.161,197.889c32.745,0,59.45,26.284,60.17,58.86c-37.357-1.38-60.442-13.313-70.651-20.101    c3.832-4.869,5.55-8.292,5.746-8.695l-13.288-6.446c-0.106,0.221-10.18,20.278-42.023,32.459    C56.244,222.689,82.353,197.889,114.161,197.889z M55.025,269.336c17.454-5.988,29.846-14.236,38.343-21.805    c10.946,7.8,36.735,22.194,79.481,23.942c-1.244,5.459-3.218,10.642-5.837,15.428c-5.823,5.669-11.108,11.887-15.772,18.572    c-10.23,8.024-23.101,12.827-37.08,12.827C84.807,318.299,60.307,297.177,55.025,269.336z M135.767,335.441    c-1.208,3.376-2.278,6.817-3.203,10.317l-18.402,21.096l-26.368-30.229c8.401-2.315,17.242-3.557,26.368-3.557    C121.579,333.068,128.808,333.892,135.767,335.441z M166.227,497.231L166.227,497.231H62.096v-61.38H47.327v61.38H14.769V432.46    c0-40.099,23.871-74.724,58.147-90.42l33.86,38.817v47.459h14.769v-47.459l6.924-7.937c-0.075,1.795-0.122,3.597-0.122,5.409    v88.658h37.879V497.231z M213.553,497.231h-32.557v-30.245h32.557V497.231z M196.423,452.216v-70.069h-14.769v70.069h-38.538    v-73.888c0-45.789,27.405-85.295,66.672-102.985l38.827,44.51v53.806h14.769v-53.806l38.827-44.51    c39.268,17.69,66.672,57.196,66.672,102.985v73.888h-38.538v-70.069h-14.769v70.069H196.423z M298.447,497.231v-30.245h32.557    v30.245H298.447z M497.231,497.231h-32.557v-61.38h-14.769v61.38h-104.13v-30.245h37.879v-88.658c0-1.813-0.047-3.615-0.123-5.409    l6.924,7.937v47.459h14.769v-47.459l33.86-38.816c34.276,15.697,58.147,50.322,58.147,90.421V497.231z" fill="#d4d8dc"/>
	</g>
</g>
<g>
	<g>
		<rect x="390.459" y="442.663" width="14.769" height="16.937" fill="#d4d8dc"/>
	</g>
</g>
<g>
	<g>
		<rect x="248.615" y="389.819" width="14.769" height="19.078" fill="#d4d8dc"/>
	</g>
</g>
<g>
	<g>
		<rect x="473.915" y="158.415" width="14.769" height="16.415" fill="#d4d8dc"/>
	</g>
</g>
<g>
	<g>
		<rect x="439.513" y="102.242" width="14.769" height="16.416" fill="#d4d8dc"/>
	</g>
</g>
<g>
	<g>
		<rect x="497.231" y="41.61" width="14.769" height="16.417" fill="#d4d8dc"/>
	</g>
</g>
<g>
	<g>
		<rect x="439.513" y="10.063" width="14.769" height="16.416" fill="#d4d8dc"/>
	</g>
</g>
<g>
	<g>
		<rect x="23.316" y="158.415" width="14.769" height="16.415" fill="#d4d8dc"/>
	</g>
</g>
<g>
	<g>
		<rect x="57.718" y="102.242" width="14.769" height="16.416" fill="#d4d8dc"/>
	</g>
</g>
<g>
	<g>
		<rect y="41.61" width="14.769" height="16.417" fill="#d4d8dc"/>
	</g>
</g>
<g>
	<g>
		<rect x="57.718" y="10.063" width="14.769" height="16.416" fill="#d4d8dc"/>
	</g>
</g>
<g>
</g>
<g>
</g>
<g>
</g>
<g>
</g>
<g>
</g>
<g>
</g>
<g>
</g>
<g>
</g>
<g>
</g>
<g>
</g>
<g>
</g>
<g>
</g>
<g>
</g>
<g>
</g>
<g>
</g>
</svg>
