<svg xmlns="http://www.w3.org/2000/svg" width="512" height="512"><path fill="#d4d8dc" d="M106.772 442.663h14.769V459.6h-14.769z"/><path d="M433.524 324.017c23.382-12.707 39.288-37.492 39.288-65.923 0-24.941-12.253-47.063-31.043-60.7-13.606-26.517-37.29-47.04-65.959-56.498 23.382-12.707 39.289-37.492 39.289-65.922C415.099 33.633 381.466 0 340.125 0c-41.34 0-74.974 33.633-74.974 74.975a74.615 74.615 0 0 0 4.136 24.51c-4.329-.695-8.765-1.069-13.287-1.069s-8.958.373-13.287 1.069a74.62 74.62 0 0 0 4.136-24.51C246.849 33.633 213.216 0 171.874 0S96.901 33.633 96.901 74.975c0 28.431 15.907 53.214 39.289 65.922-28.669 9.458-52.353 29.982-65.958 56.498-18.791 13.637-31.044 35.758-31.044 60.7 0 18.845 7.005 36.074 18.527 49.26v1.114h.965a75.457 75.457 0 0 0 19.798 15.549C32.951 339.036 0 381.97 0 432.46V512h228.322v-45.015h55.356V512H512v-79.54c0-50.49-32.951-93.424-78.476-108.443zm-35.685-5.718c-13.98 0-26.85-4.803-37.08-12.827a128.626 128.626 0 0 0-15.772-18.572 59.783 59.783 0 0 1-6.285-17.565c17.454-5.988 29.846-14.236 38.343-21.805 10.945 7.8 36.735 22.194 79.481 23.942-6.102 26.777-30.089 46.827-58.687 46.827zm26.369 18.326l-26.368 30.229-18.402-21.096a126.75 126.75 0 0 0-3.203-10.317 99.335 99.335 0 0 1 21.605-2.372 99.133 99.133 0 0 1 26.368 3.556zm33.801-79.875c-37.357-1.38-60.441-13.313-70.651-20.101 3.832-4.869 5.55-8.291 5.746-8.695l-13.288-6.446c-.106.221-10.18 20.278-42.023 32.459 2.13-31.277 28.239-56.078 60.047-56.078 32.745 0 59.45 26.284 60.169 58.861zM333.232 150.19a99.176 99.176 0 0 1 33.261 3.314l-26.369 30.229-.638-.732c.005-.358.028-.712.028-1.071a83.044 83.044 0 0 0-6.282-31.74zm48.138 8.729c13.474 6.171 25.337 15.268 34.777 26.472a74.844 74.844 0 0 0-18.308-2.271c-19.353 0-37.015 7.372-50.33 19.453v-4.838l33.861-38.816zm-41.245-23.741a60.026 60.026 0 0 1-16.634-2.355c-9.021-12.364-21.344-22.166-35.671-28.092a59.747 59.747 0 0 1-6.832-18.515c17.454-5.988 29.846-14.236 38.342-21.805 10.945 7.8 36.735 22.195 79.482 23.942-6.101 26.775-30.088 46.825-58.687 46.825zm-16.257 135.081a127.114 127.114 0 0 0-30.099-13.88c17.356-8.841 31.233-23.558 38.972-41.529v6.125a74.49 74.49 0 0 0-9.875 37.12 74.94 74.94 0 0 0 1.002 12.164zM256 250.675c-33.798 0-61.957-24.524-67.669-56.707 20.32-6.85 34.572-16.429 44.19-25.12 11.941 8.66 41.305 25.503 90.741 27.277-6.559 31.117-34.222 54.55-67.262 54.55zm31.374 19.21L256 305.851l-31.374-35.966A112.543 112.543 0 0 1 256 265.444c10.883 0 21.409 1.553 31.374 4.441zm-108.115-48.91v-6.125c7.739 17.972 21.616 32.688 38.972 41.529a127.135 127.135 0 0 0-30.099 13.88 75.075 75.075 0 0 0 1.002-12.165 74.465 74.465 0 0 0-9.875-37.119zM340.125 14.769c32.746 0 59.451 26.284 60.171 58.86-37.358-1.38-60.442-13.314-70.652-20.102 3.832-4.869 5.551-8.291 5.747-8.696l-13.268-6.489c-.454.905-10.612 20.5-42.045 32.506 2.128-31.276 28.238-56.079 60.047-56.079zM256 113.185c37.725 0 68.438 30.548 68.731 68.204-43.914-1.417-70.626-15.727-81.887-23.398 4.691-5.817 6.754-9.948 6.983-10.417l-13.288-6.446c-.124.255-11.919 23.733-49.201 37.533 1.713-36.394 31.852-65.476 68.662-65.476zm-84.126-98.416c32.746 0 59.45 26.284 60.17 58.86-37.358-1.38-60.442-13.314-70.652-20.102 3.832-4.869 5.55-8.291 5.746-8.696l-13.268-6.489c-.454.905-10.612 20.5-42.045 32.506 2.13-31.276 28.24-56.079 60.049-56.079zm-59.136 71.447c17.454-5.988 29.846-14.236 38.342-21.805 10.945 7.8 36.735 22.195 79.482 23.942a59.795 59.795 0 0 1-6.383 16.378c-14.326 5.927-26.649 15.728-35.67 28.092a59.989 59.989 0 0 1-16.634 2.355c-29.355 0-53.854-21.122-59.137-48.962zm59.775 96.786l-.638.732-26.369-30.229a99.13 99.13 0 0 1 33.262-3.314 83.042 83.042 0 0 0-6.282 31.739c0 .359.023.713.027 1.072zm-41.884-24.083l33.861 38.816v4.838c-13.315-12.081-30.977-19.453-50.33-19.453a74.85 74.85 0 0 0-18.308 2.271c9.441-11.205 21.303-20.302 34.777-26.472zm-16.468 38.97c32.745 0 59.45 26.284 60.17 58.86-37.357-1.38-60.442-13.313-70.651-20.101 3.832-4.869 5.55-8.292 5.746-8.695l-13.288-6.446c-.106.221-10.18 20.278-42.023 32.459 2.129-31.277 28.238-56.077 60.046-56.077zm-59.136 71.447c17.454-5.988 29.846-14.236 38.343-21.805 10.946 7.8 36.735 22.194 79.481 23.942a59.79 59.79 0 0 1-5.837 15.428 128.7 128.7 0 0 0-15.772 18.572c-10.23 8.024-23.101 12.827-37.08 12.827-29.353-.001-53.853-21.123-59.135-48.964zm80.742 66.105a126.75 126.75 0 0 0-3.203 10.317l-18.402 21.096-26.368-30.229a99.122 99.122 0 0 1 26.368-3.557c7.417 0 14.646.824 21.605 2.373zm30.46 161.79H62.096v-61.38H47.327v61.38H14.769V432.46c0-40.099 23.871-74.724 58.147-90.42l33.86 38.817v47.459h14.769v-47.459l6.924-7.937a129.483 129.483 0 0 0-.122 5.409v88.658h37.879v30.244zm47.326 0h-32.557v-30.245h32.557v30.245zm-17.13-45.015v-70.069h-14.769v70.069h-38.538v-73.888c0-45.789 27.405-85.295 66.672-102.985l38.827 44.51v53.806h14.769v-53.806l38.827-44.51c39.268 17.69 66.672 57.196 66.672 102.985v73.888h-38.538v-70.069h-14.769v70.069H196.423zm102.024 45.015v-30.245h32.557v30.245h-32.557zm198.784 0h-32.557v-61.38h-14.769v61.38h-104.13v-30.245h37.879v-88.658c0-1.813-.047-3.615-.123-5.409l6.924 7.937v47.459h14.769v-47.459l33.86-38.816c34.276 15.697 58.147 50.322 58.147 90.421v64.77z" fill="#d4d8dc"/><path fill="#d4d8dc" d="M390.459 442.663h14.769V459.6h-14.769zm-141.844-52.844h14.769v19.078h-14.769zm225.3-231.404h14.769v16.415h-14.769zm-34.402-56.173h14.769v16.416h-14.769zm57.718-60.632H512v16.417h-14.769zm-57.718-31.547h14.769v16.416h-14.769zM23.316 158.415h14.769v16.415H23.316zm34.402-56.173h14.769v16.416H57.718zM0 41.61h14.769v16.417H0zm57.718-31.547h14.769v16.416H57.718z"/></svg>