<svg xmlns="http://www.w3.org/2000/svg" viewBox="0 -16 512.001 512" width="512" height="512"><path d="M316 200c-5.52 0-10 4.48-10 10s4.48 10 10 10 10-4.48 10-10-4.48-10-10-10zm0 60c-5.52 0-10 4.48-10 10s4.48 10 10 10 10-4.48 10-10-4.48-10-10-10zM76 300c-5.52 0-10 4.48-10 10s4.48 10 10 10 10-4.48 10-10-4.48-10-10-10zm0 0" fill="#d4d8dc"/><path d="M506.625 121.133a10.001 10.001 0 0 0-10.348.668L412.855 180H386v-10c0-16.543-13.457-30-30-30h-37.168C335.472 125.328 346 103.879 346 80c0-44.113-35.887-80-80-80-30.09 0-56.344 16.707-70 41.324C182.344 16.707 156.09 0 126 0 81.887 0 46 35.887 46 80c0 23.879 10.527 45.328 27.168 60H30c-16.543 0-30 13.457-30 30v180c0 16.543 13.457 30 30 30h56v30c0 5.523 4.477 10 10 10h30v50c0 5.523 4.477 10 10 10h120c5.523 0 10-4.477 10-10v-50h30c5.523 0 10-4.477 10-10v-30h50c16.543 0 30-13.457 30-30v-30h26.855l83.422 58.203A10.002 10.002 0 0 0 512 370V130c0-3.727-2.07-7.14-5.375-8.867zM266 20c33.086 0 60 26.918 60 60 0 33.086-26.914 60-60 60s-60-26.914-60-60c0-33.082 26.914-60 60-60zm-52.832 120h-34.34A80.483 80.483 0 0 0 196 118.676 80.546 80.546 0 0 0 213.168 140zM66 80c0-33.082 26.914-60 60-60s60 26.918 60 60c0 33.086-26.914 60-60 60s-60-26.914-60-60zm180 380H146v-40h100zm40-60H106v-20h180zm80-50c0 5.516-4.484 10-10 10H30c-5.516 0-10-4.484-10-10V170c0-5.512 4.484-10 10-10h326c5.516 0 10 4.488 10 10zm20-150h20v100h-20zm106 150.832l-66-46.047V195.22l66-46.047zm0 0" fill="#d4d8dc"/><path d="M126 50c-16.543 0-30 13.457-30 30s13.457 30 30 30 30-13.457 30-30-13.457-30-30-30zm0 40c-5.516 0-10-4.484-10-10 0-5.512 4.484-10 10-10s10 4.488 10 10c0 5.516-4.484 10-10 10zm140 20c16.543 0 30-13.457 30-30s-13.457-30-30-30-30 13.457-30 30 13.457 30 30 30zm0-40c5.516 0 10 4.488 10 10 0 5.516-4.484 10-10 10s-10-4.484-10-10c0-5.512 4.484-10 10-10zm-40 200v-60c0-5.523-4.477-10-10-10H76c-5.523 0-10 4.477-10 10v60c0 5.523 4.477 10 10 10h140c5.523 0 10-4.477 10-10zm-20-10H86v-40h120zm110 40H116c-5.523 0-10 4.477-10 10s4.477 10 10 10h200c5.523 0 10-4.477 10-10s-4.477-10-10-10zm0 0" fill="#d4d8dc"/></svg>