<svg width="1440" height="721" xmlns="http://www.w3.org/2000/svg"><g fill="none"><path stroke="#666" fill="#666" d="M-447.85 422.365l73.725 56.193 394.02-46.313z"/><path stroke="#6C6C6C" fill="#6C6C6C" d="M-497 720H33L-84.14 584.15z"/><path stroke="#5F5F5F" fill="#5F5F5F" d="M-497 266.755l49.15 155.61 467.744 9.88z"/><path stroke="#5D5D5D" fill="#5D5D5D" d="M-497 266.755l516.894 165.49-403.03-363.09z"/><path stroke="#5B5B5B" fill="#5B5B5B" d="M-383.136 69.155l403.03 363.09L-194.727-21z"/><path stroke="#565656" fill="#565656" d="M-194.727-21L19.894 432.245-47.277-21z"/><path stroke="#616161" fill="#616161" d="M-374.125 478.558L-84.14 584.15 19.894 432.245z"/><path stroke="#575757" fill="#575757" d="M-47.277-21l67.171 453.245L133.758-21z"/><path stroke="#555" fill="#555" d="M133.758-21L398.35 399.517 309.06-21z"/><path stroke="#595959" fill="#595959" d="M19.894 432.245l378.455-32.728L133.76-21z"/><path stroke="#626262" fill="#626262" d="M-84.14 584.15l129.428 38.285-25.394-190.19z"/><path stroke="#5E5E5E" fill="#5E5E5E" d="M-84.14 584.15L33 720l12.288-97.565z"/><path stroke="#606060" fill="#606060" d="M19.894 432.245l25.394 190.19 132.705-46.93z"/><path stroke="#5E5E5E" fill="#5E5E5E" d="M19.894 432.245l158.1 143.26 21.298-44.46z"/><path stroke="#636363" fill="#636363" d="M33 720h67.992l-55.704-97.565z"/><path stroke="#595959" fill="#595959" d="M19.894 432.245l179.398 98.8 199.057-131.527z"/><path stroke="#5B5B5B" fill="#5B5B5B" d="M45.288 622.435L100.992 720h67.99z"/><path stroke="#5D5D5D" fill="#5D5D5D" d="M45.288 622.435L168.983 720l9.01-144.495z"/><path stroke="#696969" fill="#696969" d="M168.983 720l21.298-143.26-12.288-1.235z"/><path stroke="#535353" fill="#535353" d="M168.983 720h19.66l1.638-143.26z"/><path stroke="#555" fill="#555" d="M309.06-21l89.29 420.517L663.76 255.64z"/><path stroke="#565656" fill="#565656" d="M309.06-21l354.7 276.64L486-21z"/><path stroke="#5A5A5A" fill="#5A5A5A" d="M188.642 720h80.279l-78.64-143.26z"/><path stroke="#737373" fill="#737373" d="M177.993 575.505l12.288 1.235 9.01-45.695z"/><path stroke="#585858" fill="#585858" d="M190.28 576.74L268.92 720h112.227z"/><path stroke="#616161" fill="#616161" d="M190.28 576.74L381.148 720 199.292 531.045z"/><path stroke="#595959" fill="#595959" d="M199.292 531.045L381.147 720l164.652-44.46z"/><path stroke="#585858" fill="#585858" d="M199.292 531.045L545.799 675.54 398.35 399.518z"/><path stroke="#5B5B5B" fill="#5B5B5B" d="M486-21l177.76 276.64 35.223-56.193z"/><path stroke="#4F4F4F" fill="#4F4F4F" d="M486-21l212.983 220.447L531.873-21z"/><path stroke="#575757" fill="#575757" d="M398.35 399.517L545.8 675.54l126.97-162.403z"/><path stroke="#535353" fill="#535353" d="M545.8 675.54L1414.934 720l-97.48-74.1z"/><path stroke="#545454" fill="#545454" d="M486 720h928.935l-869.136-44.46z"/><path stroke="#5A5A5A" fill="#5A5A5A" d="M381.147 720H486l59.8-44.46z"/><path stroke="#555" fill="#555" d="M398.35 399.517l274.42 113.62-9.01-257.497z"/><path stroke="#545454" fill="#545454" d="M545.8 675.54l771.654-29.64-375.997-121.03zM531.873-21l167.11 220.447L866.913-21z"/><path stroke="#555" fill="#555" d="M545.8 675.54l395.657-150.67-268.687-11.733z"/><path stroke="#545454" fill="#545454" d="M663.76 255.64l512.797-2.47-477.574-53.722z"/><path stroke="#535353" fill="#535353" d="M663.76 255.64l277.697 269.23 235.1-271.7z"/><path stroke="#555" fill="#555" d="M663.76 255.64l9.01 257.498 268.687 11.732z"/><path stroke="#545454" fill="#545454" d="M698.983 199.447l477.574 53.723L866.912-21z"/><path stroke="#525252" fill="#525252" d="M866.912-21l309.645 274.17L1261.751-21zm74.545 545.87l371.901-239.59-136.8-32.11zm0 0l375.997 121.03-4.096-360.62z"/><path stroke="#545454" fill="#545454" d="M1317.454 645.9L1469 587.237V466.825z"/><path stroke="#515151" fill="#515151" d="M1313.358 285.28l4.096 360.62L1469 466.825z"/><path stroke="#515151" fill="#515151" d="M1313.358 285.28L1469 466.825V401.37z"/><path stroke="#5E5E5E" fill="#5E5E5E" d="M1313.358 285.28L1469 401.37v-7.41z"/><path stroke="#505050" fill="#505050" d="M1261.75-21L1469 150.665 1458.35 53.1z"/><path stroke="#525252" fill="#525252" d="M1176.557 253.17L1469 150.665 1261.75-21z"/><path stroke="#535353" fill="#535353" d="M1176.557 253.17l136.801 32.11L1469 150.665z"/><path stroke="#575757" fill="#575757" d="M1313.358 285.28L1469 393.96V349.5z"/><path stroke="#535353" fill="#535353" d="M1261.75-21l196.6 74.1L1469 32.722z"/><path stroke="#515151" fill="#515151" d="M1261.75-21L1469 32.722V-21zm51.608 306.28L1469 349.5V150.665z"/><path stroke="#545454" fill="#545454" d="M1317.454 645.9l97.481 74.1L1469 686.037z"/><path stroke="#545454" fill="#545454" d="M1317.454 645.9L1469 686.037v-98.8z"/><path stroke="#555" fill="#555" d="M1414.935 720H1469v-33.963z"/></g></svg>